<svg width="284" height="322" viewBox="0 0 284 322" fill="none" xmlns="http://www.w3.org/2000/svg">
<path d="M283.5 0.399998V9.39999C273.3 9.69999 265.5 11.2 260.1 13.9C255 16.6 251.55 20.95 249.75 26.95C247.95 32.95 247.05 41.5 247.05 52.6V321.25C245.25 321.25 243.45 321.25 241.65 321.25C240.15 321.25 238.5 321.25 236.7 321.25L47.7 29.2V266.8C47.7 277.6 48.6 286.15 50.4 292.45C52.5 298.45 56.4 302.8 62.1 305.5C68.1 307.9 76.95 309.4 88.65 310V319C83.25 318.4 76.2 318.1 67.5 318.1C58.8 317.8 50.55 317.65 42.75 317.65C35.25 317.65 27.6 317.8 19.8 318.1C12.3 318.1 6 318.4 0.900001 319V310C11.1 309.4 18.75 307.9 23.85 305.5C29.25 302.8 32.85 298.45 34.65 292.45C36.45 286.15 37.35 277.6 37.35 266.8V48.1C37.35 37 36.45 28.9 34.65 23.8C32.85 18.4 29.25 14.8 23.85 13C18.75 10.9 11.1 9.69999 0.900001 9.39999V0.399998C6 0.699994 12.3 0.99999 19.8 1.29999C27.6 1.59998 35.25 1.74998 42.75 1.74998C49.35 1.74998 55.65 1.59998 61.65 1.29999C67.65 0.99999 73.05 0.699994 77.85 0.399998L236.7 245.2V52.6C236.7 41.5 235.65 32.95 233.55 26.95C231.75 20.95 227.85 16.6 221.85 13.9C216.15 11.2 207.45 9.69999 195.75 9.39999V0.399998C201.15 0.699994 208.2 0.99999 216.9 1.29999C225.9 1.59998 234.15 1.74998 241.65 1.74998C249.45 1.74998 257.1 1.59998 264.6 1.29999C272.4 0.99999 278.7 0.699994 283.5 0.399998Z" fill="white"/>
</svg>
